PathFileType	4	(X/Y/Z)	C:\Users\italobelli\Desktop\GitHub\PTbot_officialCBL\Personal_Results\ABD21_noisy1.trc
DataRate	CameraRate	NumFrames	NumMarkers	Units	OrigDataRate	OrigDataStartFrame	OrigNumFrames
106.533333	106.533333	17	9	m	106.533333	401	800
Frame#	Time		gu		centelbow		EpL		centpxt8		centijc7		ij		ts		aa		ai
			X1	Y1	Z1	X2	Y2	Z2	X3	Y3	Z3	X4	Y4	Z4	X5	Y5	Z5	X6	Y6	Z6	X7	Y7	Z7	X8	Y8	Z8	X9	Y9	Z9

401	3.7547	-0.11731	0.068581	0.096888	-0.053215	0.26948	0.21589	-0.072836	0.28363	0.19413	-0.046816	-0.15316	-0.008669	-0.046816	0.031938	-0.008669	0	0	0	-0.13921	-0.021006	0.046545	-0.15538	0.085462	0.097407	-0.13894	-0.065328	0.15084
402	3.7641	-0.11738	0.068644	0.096897	-0.054469	0.26932	0.21678	-0.074062	0.28351	0.195	-0.046816	-0.15316	-0.008669	-0.046816	0.031938	-0.008669	0	0	0	-0.13902	-0.020989	0.04645	-0.15544	0.085392	0.097414	-0.13894	-0.065446	0.15068
403	3.7735	-0.11746	0.068708	0.096908	-0.055723	0.26915	0.21769	-0.075285	0.28339	0.1959	-0.046816	-0.15316	-0.008669	-0.046816	0.031938	-0.008669	0	0	0	-0.13883	-0.020972	0.046353	-0.15551	0.08532	0.097422	-0.13893	-0.065567	0.15052
404	3.7829	-0.11754	0.068771	0.096919	-0.056972	0.26899	0.21862	-0.076503	0.28326	0.19681	-0.046816	-0.15316	-0.008669	-0.046816	0.031938	-0.008669	0	0	0	-0.13864	-0.020954	0.046252	-0.15557	0.085247	0.097432	-0.13893	-0.065691	0.15035
405	3.7922	-0.11761	0.068834	0.096933	-0.058215	0.26882	0.21956	-0.077713	0.28314	0.19774	-0.046816	-0.15316	-0.008669	-0.046816	0.031938	-0.008669	0	0	0	-0.13845	-0.020936	0.04615	-0.15563	0.085173	0.097443	-0.13892	-0.065819	0.15018
406	3.8016	-0.11768	0.068897	0.096947	-0.059448	0.26865	0.22052	-0.078911	0.28301	0.19869	-0.046816	-0.15316	-0.008669	-0.046816	0.031938	-0.008669	0	0	0	-0.13826	-0.020917	0.046045	-0.15569	0.085098	0.097457	-0.13892	-0.065949	0.15001
407	3.811	-0.11775	0.068959	0.096963	-0.060668	0.26848	0.2215	-0.080096	0.28289	0.19965	-0.046816	-0.15316	-0.008669	-0.046816	0.031938	-0.008669	0	0	0	-0.13808	-0.020897	0.045937	-0.15574	0.085022	0.097472	-0.13891	-0.066083	0.14984
408	3.8204	-0.11782	0.069021	0.096981	-0.061873	0.2683	0.22249	-0.081262	0.28276	0.20064	-0.046816	-0.15316	-0.008669	-0.046816	0.031938	-0.008669	0	0	0	-0.13789	-0.020877	0.045827	-0.1558	0.084944	0.097489	-0.1389	-0.066219	0.14966
409	3.8298	-0.11789	0.069083	0.097	-0.06306	0.26812	0.2235	-0.082409	0.28262	0.20163	-0.046816	-0.15316	-0.008669	-0.046816	0.031938	-0.008669	0	0	0	-0.1377	-0.020856	0.045715	-0.15585	0.084866	0.097508	-0.1389	-0.066358	0.14947
410	3.8392	-0.11796	0.069144	0.097021	-0.064225	0.26794	0.22452	-0.083532	0.28249	0.20265	-0.046816	-0.15316	-0.008669	-0.046816	0.031938	-0.008669	0	0	0	-0.13752	-0.020834	0.045601	-0.1559	0.084787	0.097528	-0.13889	-0.0665	0.14929
411	3.8486	-0.11802	0.069204	0.097043	-0.065365	0.26775	0.22555	-0.08463	0.28235	0.20368	-0.046816	-0.15316	-0.008669	-0.046816	0.031938	-0.008669	0	0	0	-0.13734	-0.020812	0.045484	-0.15595	0.084707	0.097551	-0.13888	-0.066644	0.1491
412	3.8579	-0.11808	0.069263	0.097067	-0.066479	0.26757	0.2266	-0.085698	0.28222	0.20472	-0.046816	-0.15316	-0.008669	-0.046816	0.031938	-0.008669	0	0	0	-0.13716	-0.02079	0.045366	-0.156	0.084626	0.097576	-0.13887	-0.066791	0.14891
413	3.8673	-0.11814	0.069322	0.097092	-0.067563	0.26738	0.22765	-0.086733	0.28208	0.20578	-0.046816	-0.15316	-0.008669	-0.046816	0.031938	-0.008669	0	0	0	-0.13699	-0.020767	0.045245	-0.15604	0.084545	0.097603	-0.13887	-0.066941	0.14871
414	3.8767	-0.1182	0.069379	0.097119	-0.068613	0.26718	0.22872	-0.087734	0.28194	0.20685	-0.046816	-0.15316	-0.008669	-0.046816	0.031938	-0.008669	0	0	0	-0.13682	-0.020744	0.045122	-0.15608	0.084463	0.097632	-0.13886	-0.067094	0.14851
415	3.8861	-0.11825	0.069435	0.097148	-0.069628	0.26699	0.22981	-0.088696	0.2818	0.20794	-0.046816	-0.15316	-0.008669	-0.046816	0.031938	-0.008669	0	0	0	-0.13665	-0.02072	0.044997	-0.15612	0.08438	0.097663	-0.13885	-0.067248	0.14831
416	3.8955	-0.1183	0.069491	0.097177	-0.070604	0.26679	0.2309	-0.089618	0.28165	0.20904	-0.046816	-0.15316	-0.008669	-0.046816	0.031938	-0.008669	0	0	0	-0.13649	-0.020695	0.04487	-0.15616	0.084296	0.097696	-0.13884	-0.067406	0.14811
417	3.9049	-0.11835	0.069544	0.097209	-0.071538	0.26659	0.232	-0.090495	0.2815	0.21015	-0.046816	-0.15316	-0.008669	-0.046816	0.031938	-0.008669	0	0	0	-0.13634	-0.020671	0.044741	-0.15619	0.084212	0.097732	-0.13883	-0.067565	0.14791
